<svg xmlns="http://www.w3.org/2000/svg" width="167" height="28" fill="none" viewBox="0 0 167 28"><g clip-path="url(#a)"><path fill="#BEC3CF" d="m93.623 5.388-.327 4.06h-3.45l.584-7.277h16.756l-.327 4.06-13.445 14.854h9.128l.358-4.466h3.456l-.617 7.678H88.322l.33-4.128 13.292-14.781zm28.427 10.995c-.426 5.276-3.768 8.388-8.162 8.388s-7.256-3.112-6.834-8.388c.422-5.277 3.768-8.393 8.162-8.393s7.256 3.116 6.834 8.393m-7.927 5.176c2.553 0 3.578-2.675 3.782-5.176s-.394-5.176-2.947-5.176-3.578 2.67-3.782 5.176.394 5.176 2.947 5.176"/><path fill="#BEC3CF" d="M121.596 21.254h1.95l.785-9.742h-1.95l.245-3.048h5.582l-.213 2.674h.059a5.77 5.77 0 0 1 2.081-2.271 5.74 5.74 0 0 1 2.948-.873c3.722 0 4.833 2.233 4.534 6.224l-.567 7.036H139l-.245 3.043h-7.758l.245-3.043h1.813l.554-6.867c.131-1.627-.585-3.19-2.209-3.19-2.163 0-3.21 2.233-3.374 4.26l-.453 5.787h1.814l-.24 3.044h-7.795z"/><path fill="#BEC3CF" d="M142.905 17.681c-.2 2.502.965 4.06 3.174 4.06 1.36 0 2.426-.642 2.952-2.333h3.75c-.966 3.823-3.854 5.377-7.065 5.377-4.925 0-7.255-3.313-6.847-8.594.399-4.97 3.659-8.201 8.103-8.201 3.392 0 5.95 2.196 6.24 6.087a26 26 0 0 1-.109 3.586zm6.448-2.875c.181-2.278-.721-3.754-2.794-3.754s-3.251 1.622-3.423 3.754z"/><path fill="#606B81" d="M28.483 20.565h1.99V6.641h-1.99V2.913h10.588c4.608 0 8.349 0 8.349 5.327 0 2.88-1.869 4.739-4.58 5.012v.064c3.147.264 4.888 1.9 4.888 5.067 0 5.33-4.535 5.887-8.407 5.887H28.483zm7.85-8.89H38.6c1.056 0 2.956-.36 2.956-2.615 0-1.736-1.024-2.42-2.49-2.42h-2.72zm0 8.89h2.335c1.36 0 3.206-.424 3.206-2.551 0-1.823-.934-2.812-2.585-2.812h-2.956z"/><path stroke="#fff" stroke-width="0.823324" d="M28.483 20.565h1.99V6.641h-1.99V2.913h10.588c4.608 0 8.349 0 8.349 5.327 0 2.88-1.869 4.739-4.58 5.012v.064c3.147.264 4.888 1.9 4.888 5.067 0 5.33-4.535 5.887-8.407 5.887H28.483zm7.85-8.89H38.6c1.056 0 2.956-.36 2.956-2.615 0-1.736-1.024-2.42-2.49-2.42h-2.72zm0 8.89h2.335c1.36 0 3.206-.424 3.206-2.551 0-1.823-.934-2.812-2.585-2.812h-2.956z"/><path fill="#606B81" d="M65.109 20.762h1.741v3.53h-7.046v-3.07h-.064c-.839 2.615-3.238 3.526-5.7 3.526-3.02 0-4.92-1.763-4.92-4.834v-7.7h-1.492V8.7h7.35v9.673c0 1.344.685 2.324 1.991 2.324 1.465 0 2.268-1.016 2.268-2.42v-6.064h-1.293V8.7h7.165z"/><path stroke="#fff" stroke-width="0.823324" d="M65.109 20.762h1.741v3.53h-7.046v-3.07h-.064c-.839 2.615-3.238 3.526-5.7 3.526-3.02 0-4.92-1.763-4.92-4.834v-7.7h-1.492V8.7h7.35v9.673c0 1.344.685 2.324 1.991 2.324 1.465 0 2.268-1.016 2.268-2.42v-6.064h-1.293V8.7h7.165z"/><path fill="#606B81" d="M67.254 20.761h1.904v-8.548h-2.1V8.7h2.091V6.344c0-3.53 2.957-4.606 5.895-4.606 1.244-.01 2.485.109 3.705.355v3.741c-.454-.032-.907-.032-1.36-.032-1.529 0-2.368.588-2.368 1.932v.948h2.721v3.531h-2.72v8.548h2.425v3.531H67.254z"/><path stroke="#fff" stroke-width="0.823324" d="M67.254 20.761h1.904v-8.548h-2.1V8.7h2.091V6.344c0-3.53 2.957-4.606 5.895-4.606 1.244-.01 2.485.109 3.705.355v3.741c-.454-.032-.907-.032-1.36-.032-1.529 0-2.368.588-2.368 1.932v.948h2.721v3.531h-2.72v8.548h2.425v3.531H67.254z"/><path fill="#606B81" d="M78.59 20.761h1.9v-8.548h-2.094V8.7h2.085V6.344c0-3.53 2.962-4.606 5.895-4.606a18 18 0 0 1 3.705.355v3.741c-.453-.032-.907-.032-1.36-.032-1.528 0-2.367.588-2.367 1.932v.948h2.72v3.531h-2.72v8.548h2.426v3.531H78.59z"/><path stroke="#fff" stroke-width="0.823324" d="M78.59 20.761h1.9v-8.548h-2.094V8.7h2.085V6.344c0-3.53 2.962-4.606 5.895-4.606a18 18 0 0 1 3.705.355v3.741c-.453-.032-.907-.032-1.36-.032-1.528 0-2.367.588-2.367 1.932v.948h2.72v3.531h-2.72v8.548h2.426v3.531H78.59z"/><path fill="#BEC3CF" fill-rule="evenodd" d="M14.53 4.299h6.004q-3.002.177-6.004 0M4.34 9.803a2.7 2.7 0 0 1 1.361 0zm16.194.967h.675a.71.71 0 0 1-.675 0m-16.053 2.2v1.234a2.3 2.3 0 0 1 0-1.234m.871.205v.911a1.2 1.2 0 0 1 0-.911m11.74 2.338c.54-.16 1.36-.023 2.027-.069-.544.164-1.374.027-2.027.068m-.068 1.791a25 25 0 0 1 4.118 0zM6.232 20.124c-.046.277.086.733-.068.91.04-.295-.091-.746.068-.91m4.181.746h1.618a3.9 3.9 0 0 1-1.619 0m7.424 2.28c-.045.346.086.874-.068 1.102.045-.346-.09-.87.068-1.103m-.88.688v.825a1.1 1.1 0 0 1 0-.825m2.294 1.444c.118-.155.517-.022.744-.068-.095.16-.517.027-.744.068M4.137 8.978c.934-.127 2.208.096 2.498-.688-.267.807-1.405.734-2.498.688m17.948 15.538a4 4 0 0 1 .675-.688 3.7 3.7 0 0 1-.675.688m3.038-2.329a8.3 8.3 0 0 1 1.011-1.03q-.465.556-1.011 1.03m6.883-3.029q.327-.419.74-.752-.328.418-.74.752M28.093 5.06c.127.305.626.232.943.342-.476.05-.834-.023-.943-.342m-14.375-.761c0-.187.409-.497.608-.684-.163.269-.444.397-.608.684" clip-rule="evenodd"/><path fill="#BEC3CF" fill-rule="evenodd" d="M6.635 8.29a11 11 0 0 1 4.113-1.718c1.896-3.38 4.866-6.11 10.326-5.709a8.8 8.8 0 0 1 4.02 1.236 8.9 8.9 0 0 1 2.999 2.96c.109.32.454.393.943.342 3.646.288 6.734 2.948 6.734 7.086 0 2.848-1.569 4.31-3.038 5.923a4.6 4.6 0 0 0-.74.752c-.539.255-.906 1.249-1.754 1.654-.227.11-.608.1-.88.205-.762.305-1.233.852-1.814.825a1.57 1.57 0 0 1-1.21-.912.34.34 0 0 0-.204.21 8.3 8.3 0 0 0-1.012 1.03c-.743.597-1.75.911-2.362 1.65q-.377.305-.671.692a3.9 3.9 0 0 1-2.09.688c-.228.046-.626-.087-.744.068-.907.142-2.218.515-2.295-.62v-.815c.104-1.713.304-3.19 1.08-4.055-.849.086-1.51-.123-2.16 0-.498.09-1.106.492-1.754.683a8 8 0 0 1-2.09.415h-1.62c-1.333-.064-2.144-.656-3.174-1.03-.526 1.463-.117 3.518-1.01 4.812-.228.328-.758.57-1.085.911-.689.683-1.287 1.996-2.421 1.221-.562-.378-.907-1.29-1.36-2.06S.4 22.772.632 21.783a9 9 0 0 1 .403-.911c.118-.32.145-.693.268-.962.313-.67.98-1.134 1.147-1.722s0-1.12.136-1.581c.29-1.094 1.075-1.522 1.895-2.114a.195.195 0 0 0 0-.278V12.97c.155-.392 0-1.112.268-1.367-.884-.351-2.3-2.178-.608-2.616 1.089.037 2.227.11 2.494-.697m24.088 10.868c1.57-1.905 3.95-3.062 4.181-6.188.3-3.983-2.83-6.867-6.879-6.744-.63-.405-.857-1.148-1.36-1.718a8.35 8.35 0 0 0-2.832-2.087 8.3 8.3 0 0 0-3.435-.733c-2.404-.041-4.363.948-6.072 1.927-.2.187-.63.497-.608.684h.812q3.002.177 6.004 0h.204c.295.701 1.301 1.189 1.415 2.064.095.738-.358 1.53-.404 2.41-.789-.045-1.755.091-2.43-.068.09-.67.195-1.445.272-1.928-1.719-.164-3.982 0-5.6-.068-.386 2.041-.667 4.183-.948 6.33h1.814c.104-.744.208-1.486.34-2.202-.254-.045-.699.11-.744-.136q.098-1.01.336-1.996c.485.123 2.589.023 3.237.068-.109 1.49-.453 2.757-.54 4.265h1.148c.231-.683.095-1.736.476-2.278h1.424a.71.71 0 0 0 .675 0c.1 0 .25-.027.268.068-.104.97-.258 1.891-.404 2.82-.72.534-1.22 1.3-1.954 1.796-.657.045-1.487-.091-2.027.068-.09.574-.145 1.185-.267 1.723a.3.3 0 0 1 .2.068h4.117c.163-.196.408.096.54-.068q.61-4.188 1.214-8.393a16 16 0 0 1 3.306 0 8.4 8.4 0 0 1-.34 2.005c-.358.059-.599-.142-.74.068-.24 2.392-.684 4.556-.942 6.948-.644.56-1.18 1.23-1.814 1.787-.812.205-2.09-.064-2.902.14-1.125.525-1.474 1.823-1.62 3.368-.158.232-.022.756-.067 1.103v.346c1.21-.314 2.408 0 3.374-.483.752-.369 1.242-1.28 1.954-1.722a9.2 9.2 0 0 0 2.294-1.718c.34-.396.486-.911 1.012-1.103.43.456.625 1.108 1.147 1.445.812-.32 1.36-.912 2.363-1.03q.444-.377.802-.838m-18.96-3.85c-.303-.748-1.282-.99-1.418-1.86-.114-.742.33-1.96.453-2.957.159-1.107.272-2.16.408-3.094-1.383.269-2.92.665-3.981 1.513-.526.42-.671 1.116-1.551.911a2.7 2.7 0 0 0-1.36 0c-.068 0-.082.06-.136.069.19.747 1.16.701 1.55 1.239a5 5 0 0 0-.403 2.064c-.119.292-.119.62 0 .911-.036.456.177.56.068.966-.644.315-1.741.848-2.023 1.855-.181.647 0 1.267-.204 1.79-.235.63-.852 1.026-1.147 1.65q-.388.902-.608 1.859c-.163 1.645 1.452 2.985 1.96 3.991 1.36-1.275 2.883-2.378 2.766-5.162.154-.16.022-.615.068-.911.403-2.247 2.299-.378 3.845-.137 2.068.323 3.442-.2 5.06-.756-.163-.597-.861-.825-.947-1.518-.086-.692.322-1.403.34-2.2h-.046c-.73-.256-2.067.123-2.693-.224" clip-rule="evenodd"/><path fill="#BEC3CF" fill-rule="evenodd" d="M22.897 8.842c0-.069.054-.082.068-.137.906.073 3.015-.16 3.237.137a16 16 0 0 0-3.306 0m-3.451 10.94c.812-.205 2.09.064 2.903-.142-.699.32-1.964.055-2.903.142m10.466.205q.364-.457.812-.83a5.6 5.6 0 0 1-.812.83" clip-rule="evenodd"/><path fill="#606B81" fill-rule="evenodd" d="M33.825 9.325a3.74 3.74 0 0 1 .88 3.093c.403.406-.35 2.885-.948 3.44 0 0-.535.36-.608.757-.14.027-.177-.046-.267-.068.172.2.072.387-.204.273.367.164-.19.282-.404.551-.032.041.036.173 0 .205q-.162.081-.335.137c-.381.456-.635 1.153-1.148 1.034-.267.643-.77 1.303-1.42 1.171-.725.488-.974.429-1.686 1.03-.485-.337-1.047-.943-1.08-1.513-.815.06-.906 1.017-1.36 1.099-.136.57-1.015.91-1.419 1.449-.186-.283 0 .068-.272.068 0-.06.068-.068.068-.137q-.527.448-1.134.78c-.15.036.082.104-.063.204-.907 1.185-1.714 1.29-3.374 1.445a10 10 0 0 0-1.08.205c-.067-.688-.176-2.247.337-2.889-.046-.068-.155-.068-.136-.205.185.182.058-.401.271-.551.064 0 .05.086.069.136.285-.86.584-1.184 1.813-1.166-.122.214 0 .032.204.136 0-.068-.081-.054-.136-.068.844-.146 2.186.182 2.499-.76.25.273.068-.188.404-.41.059.031.117.058.136.136.131-.579.639-.538.807-.962.1-.246 0-.665.068-.756-.068.078.317-.118.272.137.027-.155-.19-.287-.204-.415a7 7 0 0 1 .204-1.581c.159-.97.385-2.11.453-3.303.227.182.082-.716.136-1.03.146-.128.495-.046.74-.069.127.064.04-.391.136-.136.05-.16-.023-.588.204-.62-.25-.269 0-1.039.131-1.171-.027-.178-.2-.205-.2-.415-1.36.187-2.058-.077-3.441.142-.254 2.861-.821 5.745-1.148 8.461-1.36-.046-2.983 0-4.657 0 0-.278.023-.533.205-.62-.295-.15.136-.565 0-.961.358.137.997-.219 1.147.205-.123-.246.453-.283.675-.137.322-.054.5-.542.74-.688q.51-.418.947-.911c.372-.524.735-.37.608-1.098.056.046.127.07.2.068-.318-.118-.127-.41-.136-.756.453.319-.16-.132.204-.21-.028-.105-.214-.054-.136-.273.14.155.154-.993.136-1.171-.989.136-1.483 0-2.562.073 0-.06.068-.069.068-.142-.454 1.117-.25 1.367-.477 2.41-.303.033-.848-.05-.943 0 0-1.366.454-3.143.54-4.332-1.306 0-1.878-.028-3.102 0a.197.197 0 0 1 0-.278c-.19.164-.04.31-.408.346 0 .374-.159.232-.063.62-.236-.187.054.214-.273.205.35.063.032.396.136.911-.222-.132 0 .06-.204.137.15.023.091.123.205.414.113-.114.394-.054.607-.068-.29.237.177.228-.068.483q-.037.587-.136 1.166c0 .032-.072-.032-.068-.068-.05.292.073.287 0 .415-.385.059-1.043.036-1.619.068-.127-.173.132-.66.204-1.171.14-.97.096-2.25.268-2.82 0 0 .453-.11.068-.137.1-.082.081-.287.272-.278-.517-.237.209-1.344 0-1.65.48-.132 1.46 0 2.09-.068v.205c.077 0 .055-.123.068-.205.866.105 2.036-.164 2.97.137-.453-.173.114-.132.404-.137-.054.592-.508 2.019-.054 1.969.453-.05.09.082.453 0 .68-.146 1.723.255 1.96-.069 0 0 .217-.793.199-.688.095-.574-.041-.98.136-1.927.072 0 .045.136.136.136-.454-.35-.966-1.626-1.687-2.132-1.587.087-3.356.091-5.06.068-.028 0 .117-.063.135-.068a5.5 5.5 0 0 1-1.755 0c0-.232.567-.679.454-.342.195-.059.077-.105.068-.278.254.032.326-.332.54-.136-.137-.082 0-.237.067-.069.15-.036-.081-.11.069-.205 1.36-.414 2.865-1.444 4.584-1.17.453-.333 2.267-.096 2.72.277.164-.3.141.064.545-.073a.33.33 0 0 0-.068.21c.063 0 .05-.087.068-.137 1.528.456 3.37 1.677 4.045 3.162.077-.05.453.297.136.415.222-.237.508.456.607.342-.127.237.594.09.876.136a.5.5 0 0 0-.064.142c.29 0 .549-.096.807-.073.939.1 3.02.852 3.578 1.654 0 .023-.104.1-.068.137.036.036.227.027.268.068.297.31.513.689.63 1.103m-3.306.96a6.3 6.3 0 0 0-2.562 2.84c0 1.913 1.528 1.476 1.954.756.15-1.367.309-1.823.812-2.547-.208-.42.78-.934.2-1.303-.086.3-.395.196-.454.205.023-.014.064-.01.05.05m-5.464 4.207c.163-.11.657-.538.54-.483-.232.2-.554.246-.54.483" clip-rule="evenodd"/><path fill="#606B81" fill-rule="evenodd" d="M14.326 3.615c1.71-.97 3.668-1.968 6.072-1.927a8.3 8.3 0 0 1 3.44.73 8.35 8.35 0 0 1 2.835 2.09c.495.57.722 1.313 1.36 1.718 4.05-.123 7.18 2.761 6.88 6.744-.231 3.126-2.612 4.283-4.181 6.187q-.449.373-.812.83c-.997.127-1.55.71-2.362 1.03-.522-.338-.717-1.012-1.148-1.445-.526.182-.67.706-1.01 1.103a9.2 9.2 0 0 1-2.295 1.718c-.712.455-1.202 1.367-1.955 1.722-.965.456-2.163.169-3.373.483v-.346c.154-.228.022-.757.068-1.103.145-1.526.494-2.843 1.619-3.367.906-.087 2.194.173 2.902-.142.643-.555 1.179-1.225 1.813-1.786.259-2.374.703-4.556.944-6.948.14-.21.38 0 .739-.069a8.4 8.4 0 0 0 .34-1.995c-.222-.297-2.313-.064-3.238-.137 0 .055-.068.068-.068.137a1641 1641 0 0 1-1.215 8.384c-.132.164-.377-.128-.54.068a25 25 0 0 0-4.117 0 .3.3 0 0 0-.2-.068c.123-.538.177-1.149.268-1.723.653-.04 1.483.096 2.027-.068.734-.488 1.233-1.253 1.954-1.777.145-.912.3-1.85.404-2.82 0-.096-.168-.06-.268-.069h-2.09c-.381.533-.245 1.586-.476 2.278h-1.148c.096-1.508.431-2.775.54-4.265-.648-.045-2.752.055-3.238-.068q-.24.98-.34 1.987c.046.246.49.09.744.136a53 53 0 0 0-.34 2.201h-1.814c.277-2.146.558-4.288.957-6.329 1.619.055 3.881-.095 5.6.069-.077.483-.181 1.257-.272 1.927.676.16 1.642.023 2.43.068.046-.88.5-1.672.404-2.41-.113-.875-1.12-1.367-1.415-2.064h-7.033c.163-.287.444-.415.608-.684m18.89 4.607c-.04-.041-.235-.037-.267-.068-.031-.032.087-.114.068-.137-.557-.816-2.639-1.554-3.596-1.654-.258-.023-.517.086-.807.073a.5.5 0 0 1 .082-.146c-.281-.046-1.002.1-.875-.137-.1.128-.386-.578-.608-.341.313-.119-.059-.456-.136-.415-.676-1.485-2.517-2.734-4.045-3.162 0 .05 0 .132-.068.136a.33.33 0 0 1 .068-.21c-.403.138-.38-.227-.544.074-.422-.374-2.267-.61-2.72-.278-1.72-.274-3.248.756-4.585 1.17-.15.096.081.17-.068.206-.055-.169-.204 0-.068.068-.213-.196-.286.169-.54.137 0 .173.127.219-.068.278.095-.337-.485.11-.453.342a5.5 5.5 0 0 0 1.755 0s-.164.068-.136.068c1.704.023 3.473 0 5.06-.068.721.505 1.247 1.781 1.687 2.132-.09 0-.064-.118-.136-.137-.177.948-.04 1.367-.136 1.928 0-.105-.204.692-.2.688-.235.323-1.278-.078-1.958.068-.381.082.054-.06-.454 0s0-1.367.068-1.996c-.29 0-.839-.036-.404.137-.934-.3-2.104-.032-2.97-.137 0 .082 0 .196-.068.205v-.205c-.63.055-1.61-.063-2.09.069.208.305-.517 1.412 0 1.65-.19 0-.172.195-.272.277.367.027-.068.146-.068.137-.173.57-.127 1.85-.268 2.82-.072.51-.33.998-.204 1.171.576-.032 1.233 0 1.619-.068.072-.128-.05-.123 0-.415 0 .037.063.1.068.069q.1-.58.136-1.167c.245-.255-.222-.246.068-.483-.213 0-.494-.045-.608.069-.113-.292-.054-.392-.204-.415.204-.078 0-.269.204-.137-.104-.496.213-.83-.136-.911.327 0 .037-.392.272-.205-.095-.387.064-.246.064-.62.367-.036.218-.182.408-.346a.2.2 0 0 0-.043.214q.015.037.043.064c1.224-.028 1.814 0 3.102 0-.1 1.212-.553 2.975-.553 4.356.095-.05.639.032.943 0 .226-1.066 0-1.294.476-2.41 0 .072-.055.081-.068.14 1.079-.086 1.573.065 2.562-.072 0 .178 0 1.326-.136 1.17-.077.22.109.17.136.274-.363.078.231.529-.204.21 0 .346-.182.638.136.756a.3.3 0 0 1-.2-.068c.127.729-.236.574-.607 1.098a8 8 0 0 1-.948.911c-.24.146-.417.634-.74.688-.212-.146-.797-.11-.675.137-.15-.424-.789-.068-1.147-.205.136.396-.295.811 0 .961-.181.087-.204.342-.204.62 1.673 0 3.301-.046 4.657 0 .326-2.734.907-5.6 1.147-8.461 1.36-.22 2.068.045 3.442-.142 0 .21.172.237.2.415-.146.132-.382.911-.132 1.171-.227.032-.154.456-.204.62-.095-.255 0 .2-.136.136-.245 0-.594-.059-.74.069-.054.314.091 1.212-.135 1.03-.087 1.193-.313 2.332-.454 3.303a7 7 0 0 0-.204 1.581c0 .128.231.26.204.415.046-.256-.34-.06-.272-.137-.077.091.032.51-.068.756-.168.424-.676.383-.807.962 0-.078-.077-.105-.136-.137-.336.223-.154.684-.404.41-.313.943-1.655.615-2.498.761.054 0 .131 0 .136.069-.182-.105-.327.077-.204-.137-1.234 0-1.533.305-1.814 1.166 0-.05 0-.132-.068-.136-.213.15-.086.733-.272.55 0 .138.09.138.136.206-.513.642-.404 2.2-.336 2.889a10 10 0 0 1 1.08-.205c1.66-.155 2.448-.26 3.373-1.445.145-.1-.086-.168.064-.205a6.7 6.7 0 0 0 1.147-.756c0 .068-.055.077-.068.137.25 0 .086-.351.272-.069.404-.52 1.283-.88 1.42-1.449.453-.082.53-1.039 1.36-1.098.032.57.594 1.176 1.079 1.513.712-.602.961-.542 1.687-1.03.648.132 1.152-.528 1.42-1.17.512.118.765-.598 1.146-1.035a2.5 2.5 0 0 0 .336-.137c.036-.032-.032-.164 0-.205.213-.269.77-.387.404-.551.276.114.376-.073.204-.274.09.023.127.096.267.069.073-.397.594-.743.608-.757.598-.556 1.36-3.034.947-3.44a3.75 3.75 0 0 0-.88-3.094 2.6 2.6 0 0 0-.643-1.116" clip-rule="evenodd"/><path fill="#BEC3CF" fill-rule="evenodd" d="M14.457 15.512c-.857-.114-2.172.246-2.698-.205.63.346 1.968-.032 2.698.205" clip-rule="evenodd"/><path fill="#606B81" fill-rule="evenodd" d="M5.692 9.803c.88.223 1.025-.456 1.55-.912 1.062-.847 2.6-1.244 3.982-1.512-.136.934-.25 1.986-.408 3.094-.14.997-.585 2.214-.453 2.957.136.87 1.115 1.111 1.42 1.859.525.455 1.84.09 2.697.205h.068c0 .797-.417 1.544-.34 2.2s.785.912.948 1.518c-1.619.556-2.993 1.08-5.06.756-1.547-.241-3.443-2.11-3.846.137-.159.164-.027.615-.068.911.118 2.784-1.406 3.887-2.766 5.163-.508-1.007-2.122-2.347-1.96-3.992.147-.637.35-1.26.608-1.859.295-.624.907-1.02 1.148-1.65.195-.523.022-1.143.204-1.79.28-1.007 1.36-1.54 2.022-1.855.109-.405-.104-.487-.068-.965v-.912a5 5 0 0 1 .404-2.064c-.39-.537-1.36-.492-1.551-1.24.054 0 .068-.068.136-.068zm4.535 3.854c.426-2.237.571-4.2.947-6.192a.9.9 0 0 0-.453.137c.072 0 .159.114.063.137-.426-.251-1.618.205-1.75.483-.095 0-.131-.1-.272-.069.204.32.059.05-.136.069-.195.018-.295.255-.453.341a3.3 3.3 0 0 0-1.551 1.171c0-.032-.486.192-.204.278-.209-.164-.989.082-.876-.141-.639.077-.816 0-1.215.068.082 0 .041.078 0 .142.644.455 1.025.455 1.619 1.03-.104 0-.045.15 0 .204-.154-.136-.154.032-.068.142-.58.537-.268 1.367-.268 1.922 0 0-.14-.054-.136-.068-.11.52-.013 1.064.273 1.513-.214-.032-.218.15-.205.346-.2 0-.23 0-.136.137-.49-.128-1.528.715-1.283.911-.898.552-.612 1.463-.657 2.187-.259.11-.594 1.012-.744 1.235a1.82 1.82 0 0 0-.676 1.517c-.095-.132-.372.415-.136.547a.3.3 0 0 1-.2-.068c-.104.246.227.04.2.205a.35.35 0 0 1-.267-.06.32.32 0 0 0 .068.21c-.35-.196-.195.957 0 .825-.159.456.28.82.403 1.367.322-.264.177.852.608.62 0 .04 0 .082.068.068 0 .11-.172.055-.136.205.367.037.15.387.404.62.167.09.213-.274.272-.069 0 .11-.173.055-.136.205s.086.096.068.205c.453-.109.639-.255.54-.455.212.182.18-.123.267-.21.367-.36 1.42-1.016 1.42-1.718 0 .041-.055.078-.069 0 .726-.173.336-1.686.453-1.65.164.67.041-1.261.205-.91 0-.301.04-.68-.136-.62.165-.273.236-.593.204-.911.255-.158.447-.402.54-.688.03.3.412-.087.607-.069.385.497 1.12.05.943.415.145-.114.59.332.453.273.626.306 3.279.643 3.778.278.852.105 1.814-.314 1.814-.483.235.187.485-.064.675-.141a.93.93 0 0 0-.453-.547c.05 0 .077-.059.068-.136-.231 0-.331-.41-.54-.761 0 .045 0 .086-.068.072.336-.555.227-1.558.454-2.2-.313.118-.63-.041-.454 0-.907-.219-1.714.332-2.362-.278-.381-.36-.345-.73-.88-.962.236.005-.258-.565-.512-.679z" clip-rule="evenodd"/><path fill="#606B81" fill-rule="evenodd" d="M10.748 14.346c.535.232.499.601.88.961.648.61 1.46.06 2.362.278-.158-.041.16.118.454 0-.245.642-.136 1.645-.454 2.2.055 0 .064-.027.068-.072.209.35.309.77.54.76 0 .078 0 .124-.068.137a.94.94 0 0 1 .454.547c-.191.078-.454.328-.676.142 0 .168-.97.587-1.814.483-.499.364-3.174.027-3.777-.279.118.06-.327-.387-.454-.273.177-.364-.558.082-.943-.415-.195 0-.576.37-.608.069-.092.287-.283.53-.54.688.033.318-.038.638-.203.911.177-.059.136.32.136.62-.164-.365-.041 1.567-.204.911-.136-.036.254 1.477-.454 1.65 0 .077.068.04.068 0 0 .701-1.052 1.367-1.42 1.717-.085.087-.054.392-.267.21.1.223-.095.37-.54.456 0-.11-.063-.114-.067-.205s.127-.096.136-.205c-.06-.206-.105.16-.272.068-.254-.232-.037-.583-.404-.62-.036-.15.127-.095.136-.205-.059 0-.063-.027-.068-.068-.43.232-.286-.884-.608-.62-.122-.556-.562-.939-.403-1.367-.195.132-.35-1.02 0-.825a.32.32 0 0 1-.095-.218.35.35 0 0 0 .267.068c.027-.164-.304.041-.2-.205.057.046.128.07.2.068-.236-.132.041-.678.136-.546a1.83 1.83 0 0 1 .676-1.527c.15-.223.485-1.125.744-1.235.045-.733-.24-1.649.603-2.205-.245-.178.793-1.02 1.283-.911-.095-.119-.064-.155.136-.137 0-.196 0-.378.204-.346a2.03 2.03 0 0 1-.272-1.513s.136.073.136.068c0-.55-.313-1.367.268-1.922-.087-.11-.087-.278.068-.142-.046-.054-.105-.187 0-.205-.594-.565-.957-.551-1.62-1.011.042-.064.082-.123 0-.142.4-.072.577 0 1.216-.068-.113.223.667 0 .875.141-.28-.086.222-.31.204-.278.387-.534.924-.94 1.542-1.166.177-.087.331-.328.453-.342.123-.013.34.25.137-.068.14-.032.176.045.272.068.131-.278 1.324-.733 1.75-.483.095-.023 0-.118-.063-.136a.9.9 0 0 1 .453-.137c-.376 1.991-.522 3.955-.948 6.192.3.11.794.679.585.684m19.703-4.128c.077 0 .386.095.454-.205.58.369-.409.884-.2 1.303-.503.706-.662 1.194-.812 2.547-.426.72-1.94 1.157-1.954-.756a6.3 6.3 0 0 1 2.562-2.82c.032-.06-.009-.065-.05-.07m.454 0c-1.02.615-3.252 1.822-2.83 3.577a.91.91 0 0 0 .943.62c.721-.087.853-1.295 1.08-1.996.248-.76.564-1.497.943-2.201z" clip-rule="evenodd"/><path fill="#fff" fill-rule="evenodd" d="M31.059 10.218q-.57 1.058-.944 2.2c-.226.702-.358 1.91-1.079 1.996a.9.9 0 0 1-.943-.62c-.422-1.745 1.814-2.961 2.83-3.576z" clip-rule="evenodd"/><path fill="#606B81" fill-rule="evenodd" d="M25.595 14c.117-.055-.377.373-.54.483-.014-.228.308-.274.54-.483" clip-rule="evenodd"/><path fill="#606B81" d="M153.534 24.033h-1.03v-1.367h1.03zm2.77-3.408a1.4 1.4 0 0 0-.068-.31.6.6 0 0 0-.145-.223.37.37 0 0 0-.249-.082.45.45 0 0 0-.318.1.6.6 0 0 0-.186.305 2.3 2.3 0 0 0-.086.506c0 .205-.022.456-.022.724 0 .27 0 .552.022.761q.015.267.086.524c.03.113.09.215.173.297a.45.45 0 0 0 .295.09.41.41 0 0 0 .394-.264c.097-.274.139-.565.122-.856h1.03a2.37 2.37 0 0 1-.372 1.44 1.43 1.43 0 0 1-1.224.492 2 2 0 0 1-.703-.11 1.03 1.03 0 0 1-.476-.414 2.2 2.2 0 0 1-.3-.775 6 6 0 0 1-.099-1.207q-.013-.617.122-1.222c.063-.28.184-.543.354-.774a1.2 1.2 0 0 1 .535-.406c.219-.078.451-.117.685-.113a1.31 1.31 0 0 1 1.12.496c.276.4.41.881.381 1.367h-1.03a3 3 0 0 0-.041-.346m1.551-.073c.045-.278.14-.545.281-.788.126-.196.301-.353.508-.456a1.66 1.66 0 0 1 .776-.164 1.7 1.7 0 0 1 .798.146c.21.098.386.257.508.455.134.246.224.515.263.793q.081.548.077 1.103.006.549-.086 1.089a2.3 2.3 0 0 1-.277.784 1.2 1.2 0 0 1-.512.455 1.8 1.8 0 0 1-.771.15 1.8 1.8 0 0 1-.803-.136 1.1 1.1 0 0 1-.503-.456 2.3 2.3 0 0 1-.268-.793 7 7 0 0 1-.077-1.098 6 6 0 0 1 .086-1.084m1.002 1.763q.013.271.078.533a.75.75 0 0 0 .172.347.4.4 0 0 0 .313.123q.325.001.453-.388a4.8 4.8 0 0 0 .127-1.294 4.7 4.7 0 0 0-.127-1.29q-.12-.39-.453-.391a.4.4 0 0 0-.313.123.8.8 0 0 0-.172.35q-.066.263-.078.534v.674c0 .242-.009.47 0 .68m3.809-3.072v.488a1.3 1.3 0 0 1 .454-.456c.185-.099.393-.147.603-.141.224-.008.444.06.626.191a1 1 0 0 1 .34.57c.064-.23.205-.431.399-.57.193-.132.424-.2.657-.191a.88.88 0 0 1 .789.369c.197.313.297.678.286 1.048v3.481h-1.075v-3.349a.9.9 0 0 0-.095-.456.34.34 0 0 0-.322-.16.49.49 0 0 0-.408.192 1.04 1.04 0 0 0-.154.624v3.154h-1.07v-3.354a.86.86 0 0 0-.1-.456.34.34 0 0 0-.322-.16.49.49 0 0 0-.408.192 1.04 1.04 0 0 0-.127.61v3.154h-1.075v-4.78z"/></g><defs><clipPath id="a"><path fill="#fff" d="M.574.824H166.82v26.207H.574z"/></clipPath></defs></svg>