<svg xmlns="http://www.w3.org/2000/svg" width="137" height="35" fill="none" viewBox="0 0 137 35"><path fill="#606B81" d="M82.418 16.707c-.028-.255-.028-.283-.085-.283-.028 0-.028 0-.056.029-.028.028-.028.056-.028.085-.142.538-.369.792-.397.792a2.39 2.39 0 0 1-1.869.907H57.044c-.906 0-1.727-.51-2.124-1.303-.028-.085-.141-.312-.141-.425 0-.028 0-.085-.085-.085-.057 0-.085.057-.114.283 0 .142-.028.284-.028.369 0 1.302 1.105 2.378 2.464 2.378h22.939c1.359 0 2.463-1.076 2.463-2.378a.8.8 0 0 0 0-.369M61.83 3.539c.029-.057.085-.113.114-.198 0-.029.028-.029.028-.057.028-.057.085-.113.113-.17.057 0 .142 0 .198-.028.029 0 .029-.029.029-.057s-.029-.028-.057-.028c-.056 0-.085-.029-.142-.029-.056-.028-.084-.028-.141-.056l-.17-.085c-.057-.029-.113-.029-.17-.057-.113-.028-.226-.056-.368-.056s-.255 0-.368.028a.65.65 0 0 0-.34.17c-.085.085-.17.17-.255.283a1.6 1.6 0 0 0-.227.651c0 .029 0 .057.029.057h.028c.029 0 .029 0 .057-.028.028-.057.056-.085.085-.142.141.113.283.17.453.227.085.028.17.028.255.028.113 0 .255-.028.368-.057.085-.028.198-.085.283-.141.057-.085.142-.17.198-.255m-.566.17a1 1 0 0 1-.51.056c-.141-.028-.283-.056-.425-.141.057-.085.085-.142.142-.227.085.227.312.34.538.255a.414.414 0 0 0 .283-.538c-.028-.057-.028-.085-.085-.142.114 0 .227 0 .368.029.085 0 .142.028.227.056l.085.029h.028c-.028.028-.056.085-.085.113a.4.4 0 0 0-.085.113.4.4 0 0 1-.085.114.94.94 0 0 1-.396.283m13.026 6.06c0-.227.142-.453.34-.595-.113-.085-.226-.141-.34-.226-.17.085-.282.226-.282.396.028.198.113.34.283.425m.509.425a.64.64 0 0 1 .369-.482l-.284-.283-.056-.056a.46.46 0 0 0-.312.424c0 .17.114.34.283.397m.453.481c.029-.226.17-.396.369-.51-.085-.084-.17-.198-.255-.283a.425.425 0 0 0-.312.425c0 .142.057.283.198.368m.511.51c0-.226.141-.425.34-.538l-.284-.283a.425.425 0 0 0-.311.425c-.029.141.085.311.254.396m.51.425c0-.227.142-.425.312-.538l-.142-.142c-.056-.057-.113-.085-.17-.142-.17.085-.283.227-.283.397 0 .198.113.368.283.425m.595.481c0-.056-.029-.113-.029-.141 0-.199.085-.368.227-.482-.085-.056-.198-.141-.283-.198-.17.085-.284.226-.284.396 0 .199.17.369.369.425m.623.284c-.028-.029 0-.057-.028-.114v-.028c0-.028-.029-.085-.029-.113a.84.84 0 0 1 .142-.425c-.113-.057-.198-.085-.283-.142a.48.48 0 0 0-.199.368c0 .227.17.425.397.454m.651.225h.085a.57.57 0 0 1-.113-.367c0-.085.028-.17.056-.255-.113-.028-.226-.085-.34-.113a.46.46 0 0 0-.141.311c0 .198.198.425.453.425m.68.056h.056a.64.64 0 0 1-.17-.453c0-.056 0-.113.029-.17-.085 0-.198-.028-.312-.056a.5.5 0 0 0-.056.198c-.029.283.198.481.453.481m.566.001a.36.36 0 0 0 .283-.113.62.62 0 0 1-.396-.51c-.113.028-.227.028-.34.028-.028.057-.028.085-.028.142a.49.49 0 0 0 .481.453m.567-.284c.226 0 .424-.198.424-.453 0-.085-.028-.141-.056-.198-.255.142-.51.226-.793.283a.406.406 0 0 0 .425.368"/><path fill="#606B81" d="M56.846 17.614c.227.056.453.113.651.113h.114c.453 0 .764-.085.99-.142.114-.028.199-.056.256-.056a4.3 4.3 0 0 1 .877 0c.114.028.255.028.425.056.822.085 1.926.17 2.606.17h.283c.821 0 1.36-.368 1.416-.396h.028c.227.198 1.246.34 1.728.368.283 0 .566.028.877.028 1.388 0 2.89-.142 3.71-.255 1.388.283 3.852.312 5.211.312 1.501 0 2.69-.057 2.889-.057h.113c.425-.056 1.444-.142 1.84-1.02.17-.34.142-.707-.056-1.075-.198-.369 0-.029-.028-.057.708-.765.821-2.18.538-3.144-.17-.651-.51-1.132-.595-1.217-.056-.142-.368-.935-.764-1.586-.51-.935-1.53-1.558-2.917-1.87a10 10 0 0 0-1.841-.198c-.368 0-.737.029-1.076.057-.057 0-.17.028-.34.057-.652.113-1.898.311-2.35.34-.114 0-.199-.057-.284-.142-.17-.227-.113-.68-.085-.821V7.05c.114-.594-.056-1.076-.481-1.416a1.3 1.3 0 0 0-.765-.226c-.283 0-.566.056-.85.113-.084.028-.17.028-.226.057-.255.056-.51.113-.793.113-.142 0-.283-.028-.425-.057-.056 0-.085-.028-.17-.056-.623-.34-1.755-1.501-1.869-1.614v-.029c.085-.141.114-.226.17-.368.028-.085.057-.17.113-.311.057-.114.227-.369.284-.482.028-.028.028-.085.028-.113s-.028-.085-.085-.085c-.311-.17-.651-.198-.878-.198h-.056l.028-.029c.368-.538.708-1.387.708-1.416.028-.056 0-.085-.029-.141a.2.2 0 0 0-.113-.057c-1.586.057-2.237.397-2.492.595h-.057a1 1 0 0 0-.65-.227c-.114 0-.2 0-.312.029a1.1 1.1 0 0 0-.708.594h-.029c-.198.029-.764.199-1.33.935-.765.991-1.587 1.472-1.983 1.727-.085.057-.142.085-.17.114-.481.368-.906.878-.34 1.925.425.765 1.416 1.02 2.18 1.02.227 0 .426-.028.624-.057h.028v.029c.085.113.312.453.17.85-.057.14-.142.282-.198.424a.2.2 0 0 0-.057.113c-.198.34-.368.623-.17 1.161v.029h-.028c-.198.113-.538.396-.595.764-.028.199-.028.368.029.567v.113c-.029.056-.114.056-.227.028l-.085-.028c-.028 0-.085-.028-.113-.028a2.4 2.4 0 0 0-.652-.114c-.17 0-.311.029-.453.085-.453.17-1.076.652-1.586 1.983-.141.368-.254.68-.113.963.057.084.057.254-.255.424a.53.53 0 0 0-.255.425.57.57 0 0 0 .085.312v.028c.029.056.057.113 0 .226a4 4 0 0 0-.198.34c-.113.284-.113.34-.142.482v.028c.086.255.51.793 1.275 1.02m2.719-.709c-.567.085-.907-.141-.85-.48.057-.37.113-.737.142-.879.028-.141.056-.311.255-.425.17-.113.51-.113.849.142.283.198.51.481.68.68.453.708-.425.85-1.076.963m11.837-2.237c-.028.142-.113.482-.595.453-.481-.028-.51-.453-.51-.566.029-.113.029-.226.086-.538s.311-.396.566-.396c.368 0 .51.311.51.453.028.141-.029.453-.057.594m1.303 2.323c-.538-.029-.737-.17-.68-.51.057-.482.765-.114.821-.284.029-.113-.283-.141-.538-.226-.255-.113-.226-.481.283-.68.51-.198.935 0 1.162.17.226.142 0 .198 0 .198-.907.312-.963 1.105-.963 1.332zm2.294.283c-.029.028-.085.028-.085.028-.397.057-.708 0-.85-.028q-.085 0-.085-.085c-.028-.284.142-.623.198-.708.114-.17-.113-.34-.255-.114a1.4 1.4 0 0 0-.283.793c0 .029-.028.057-.085.057a.75.75 0 0 1-.453-.198c-.028-.028-.056-.057-.028-.113.056-.737.651-.992.85-1.048.056 0 .084 0 .113.028.226.283.85.34 1.19.368.084 0 .226.057.197.142-.085.623-.311.821-.424.878m.594-1.246c-.028-.029-.226-.114-.538-.142-.736-.057-.821-.481-.821-.68 0-.311.227-.538.397-.623 0 0 .056.199.226.34-.057.028-.198.142-.198.283 0 .085 0 .255.425.284.141 0 .65.056.85.283a.49.49 0 0 0-.34.255m1.275.99c-.34.03-1.133.057-1.076-.679.028-.255.226-.396.538-.425.424-.028.82.114.82.114.454.17.907.481 1.247.99 0 0-1.19-.027-1.53 0M75.48 7.844c.17 0 .368.029.538.029 1.105.085 2.379.396 3.2 1.217.114.114.198.227.283.34.057.085.284.425.312.51.085.142.141.255.198.396l-.056.057c-.114.085-.539.368-1.048.368-.029 0-.737 0-1.558-.764l-.028-.029c-.368-.311-.708-.68-1.02-1.02a9 9 0 0 0-.481-.509c-.283-.255-.566-.481-.878-.623.198.028.368.028.538.028m-1.869.199c.255-.057.453-.085.651-.114.425.17.906.453 1.303.85.142.141.283.283.453.481.283.312.651.708 1.048 1.048.934.85 1.756.878 1.869.878.623 0 1.105-.312 1.274-.453.057.085.085.198.142.311-.255.17-.765.482-1.416.482-.17 0-1.076-.057-2.096-.963-.396-.34-.764-.736-1.076-1.048-.17-.198-.34-.34-.453-.453-.538-.623-1.218-.878-1.699-1.02m-1.53.368c.029 0 .029-.029.057-.029.085-.028.17-.028.284-.085.254-.056.481-.028.707.029.17.028.34.085.482.113.396.142.963.368 1.416.821.113.114.255.255.425.453.311.312.68.737 1.104 1.105.85.793 1.784 1.076 2.35 1.076.709 0 1.275-.283 1.587-.51.113.17.368.623.51 1.105.254.878.14 2.124-.425 2.775-.425.453-.85.396-.992.34-.028-.028-.056-.057-.028-.057 0 0 .028 0 .028-.028.227-.113.397-.283.538-.425.029-.028.057-.057.057-.085.595-.708.453-1.586.397-1.84-.029-.086-.114-.142-.199-.114a.21.21 0 0 0-.141.198c.056.227.17.963-.312 1.558-.481.566-1.388.878-2.719.878h-.028c-.056 0-.141 0-.198-.029-1.105-.085-1.67-.623-1.926-.934-.283-.396-.425-.85-.311-1.246.198-.85 1.104-1.218 1.132-1.218.085-.028.142-.141.085-.226-.028-.085-.141-.114-.226-.085-.028 0-.198.085-.425.226-.396.227-.85.623-1.076 1.303s-.396 1.388-1.36 1.218c-.452-.114-1.047-.368-1.047-1.048.198-1.728-.368-4.05-.368-4.163-.114-.567.198-.906.623-1.076m-.594 3.596c.028.227.057.595.057.765s-.057.51-.567.51c-.453 0-.51-.312-.51-.51 0-.17-.028-.283-.028-.623a.52.52 0 0 1 .538-.538c.227.028.482.113.51.396m-.368-2.124c.113.255.198.652.198.878 0 .255 0 .425-.425.538-.424.085-.594-.198-.651-.34-.057-.17-.142-.368-.17-.481-.198-.425.028-.708.283-.821.227-.085.623-.142.765.226m-3.625-4.021c.057.028.142.028.198.057a.47.47 0 0 1-.056.594c-.227.199-.538.199-.708.057.113.198.056.425-.142.566a.466.466 0 0 1-.595-.028h-.028c.085.198 0 .425-.198.538-.199.113-.425.057-.595-.085h-.028a.39.39 0 0 1-.227.482c-.226.085-.453.056-.566-.085h-.029c0 .113-.028.34-.283.424-.226.085-.481.029-.566-.085a.48.48 0 0 1-.368.369c-.255.056-.453-.029-.51-.085l-.255.085c-.085.028-.028.056 0 .113.113 0 .227.113.227.226a.244.244 0 0 1-.227.227.223.223 0 0 1-.226-.227c0-.085.056-.141.113-.17-.028-.056-.028-.084-.028-.113-.142.029-.312.085-.482.114v.028s-.028.056 0 .113c.142 0 .255.113.255.255a.254.254 0 0 1-.255.255.254.254 0 0 1-.255-.255c0-.085.057-.17.142-.227-.029-.056-.029-.113 0-.141-.17.028-.368.085-.567.085 0 0-.028.056 0 .113.17 0 .284.142.284.283 0 .17-.142.283-.312.283-.057 0-.085 0-.113-.028-.114-.028-.17-.141-.17-.255v-.056c0-.029 0-.029.028-.057l.029-.028.028-.029.028-.028.029-.028c.028-.029.056-.029.056-.057-.028-.057-.028-.085 0-.113h-.028s-.142.028-.17-.113c0-.085.056-.114.142-.142.368-.057 1.047-.17 1.925-.425a10 10 0 0 0 1.841-.765c.736-.368 1.5-.85 2.237-1.444.114-.113.255-.226.368-.311-.056.056.029.113.057.113m-.425-.227c-1.925 1.7-4.021 2.38-5.239 2.662-.085 0-.198 0-.226-.141-.029-.142.056-.198.113-.227.255-.056.566-.17.963-.34.085-.028.113-.141.085-.226-.057-.085-.142-.113-.227-.085a5 5 0 0 1-.453.198c-.397.113-.765 0-.765-.283 0-.227.567-.255.793-.312.057 0 .085 0 .142-.028.68-.113 1.416-.255 1.784-.793.425-.594.057-1.387.057-1.387.623.056 1.104-.312 1.33-.539.255.312 1.049 1.105 1.643 1.501m-1.557-4.7c-.085.141-.199.396-.482.792-.538.737-1.5 1.048-1.84.623-.822-1.132 2.322-1.416 2.322-1.416m-4.985 5.805c-.311.028-.396-.142-.396-.142-.142-.17-.028-.311.057-.368.084-.057.311-.226.17-.396-.255-.284-.482.056-.539.17-.056.113-.085.396-.481.594-.255.114-.651.199-.906 0a1.3 1.3 0 0 1-.368-.425 1.2 1.2 0 0 1-.227-.68c0-.254.085-.537.397-.65.34-.142.396-.029.51-.114.056-.028.056-.113.084-.17.057-.283.68-.538 1.02-.963.255-.254.481-.538.708-.82.51-.68.963-.794 1.133-.822s.566-.085.82.198c.256.283.312.765.142 1.105s-.056.424 0 .453c.057.056.312.255.652-.199 0 0 .594-.764 1.529-.934.085 0 .51-.085.963.085a1.6 1.6 0 0 0-.198.368c-.057.142-.114.227-.142.312-.057.141-.085.254-.198.424-.057.057-.425.538-.991.567-.284-.029-.17-.397-.085-.567s.68-.566.764-.651c.085-.057.057-.17-.113-.057-.17.085-.368-.056-.623.114s-.142.424-.142.424-.283.199-.51.34c-.226.142-.028.425.057.567.085.113.482.793.142 1.33-.283.454-.935.539-1.558.652-.226.028-.566-.028-.764.028-.34.085-.623.199-.907.227m.17 3.285a12.6 12.6 0 0 0 2.917-.595c1.416-.453 3.342-1.19 4.815-2.945 1.472-1.756 0 0 0-.028l.056-.057c.142-.17.538-.623 1.133-.736.283-.029.623-.029.85.141.34.284.48.708.311 1.303-.085.312-.538.623-.934.651-.454 0-.652-.283-.652-.283-.056-.085-.141-.113-.226-.056-.057.028-.085.113-.085.17 0 .056.141.424.651.538.425.056.368.311.255.368-2.889 1.302-5.267 1.812-6.825 2.039a19 19 0 0 1-2.237.141.39.39 0 0 1-.312-.311c-.056-.199.142-.312.283-.34m8.128-.821c.028-.029.057-.057.113-.029.029.029.057.057.029.085 0 0-.029.057 0 .142.198 0 .368.17.368.34 0 .198-.17.368-.368.368a.375.375 0 0 1-.369-.368c0-.142.085-.255.227-.312-.057-.113 0-.226 0-.226m-.934.283c.028-.028.056-.057.113-.028.028.028.056.056.028.113 0 0-.028.085 0 .141.198 0 .368.17.368.34 0 .199-.17.34-.368.34s-.368-.17-.368-.34c0-.141.085-.283.227-.311-.057-.142 0-.227 0-.255m-.878.255c.028-.029.056-.057.113-.029.028.029.056.057.028.114 0 0-.028.085 0 .141.198 0 .368.17.368.34 0 .198-.17.34-.368.34s-.368-.17-.368-.34c0-.142.085-.255.227-.311-.057-.114 0-.227 0-.255m-.85.283c.028-.028.057-.057.113-.028.029.028.057.056.029.085 0 0-.029.056 0 .141.198 0 .368.17.368.34 0 .198-.17.34-.368.34-.199 0-.369-.17-.369-.34 0-.142.085-.283.227-.311-.057-.114 0-.199 0-.227m-.878.283c.028-.028.057-.056.113-.028.029.028.057.056.029.085 0 0-.029.085 0 .141.198 0 .368.17.368.368 0 .199-.17.369-.368.369a.375.375 0 0 1-.369-.369c0-.141.085-.283.227-.311-.057-.142-.028-.227 0-.255m-.963.17c.028-.028.057-.057.114-.028.028.028.056.056.028.113 0 0-.028.085 0 .142.198 0 .368.17.368.34 0 .198-.17.34-.368.34s-.368-.17-.368-.34c0-.142.085-.255.226-.312-.028-.142 0-.255 0-.255m-.906.17c.028-.028.057-.057.113-.028.029.028.057.056.029.113 0 0-.029.085 0 .142.198 0 .368.17.368.34s-.17.34-.368.34c-.199 0-.369-.17-.369-.34 0-.142.085-.255.227-.312-.057-.142 0-.227 0-.255m-.821.142c.028-.029.056-.057.113-.029.028.029.057.057.028.085 0 0-.028.057 0 .142.199 0 .34.17.34.34 0 .198-.17.34-.368.34s-.368-.17-.368-.34c0-.142.085-.284.226-.34-.028-.057.029-.17.029-.198m-.85.113c.029-.028.057-.057.113-.028.029.028.057.056.029.085 0 0-.029.084 0 .141.198 0 .368.17.368.34 0 .198-.17.368-.368.368a.375.375 0 0 1-.368-.368c0-.142.085-.255.226-.312-.056-.113 0-.226 0-.226m-.85.028c.029-.028.057-.056.114-.028.028.028.056.057.028.113 0 0-.028.057 0 .142.198 0 .368.17.368.34 0 .198-.17.368-.368.368a.375.375 0 0 1-.368-.369c0-.141.085-.283.227-.311-.057-.113 0-.226 0-.255m-4.842 5.522a1.7 1.7 0 0 1 .283-.68c.142-.197.142-.31.085-.396l-.028-.028-.085-.17v-.057c0-.085.056-.141.113-.17.538-.311.482-.65.397-.82s.113-.737.113-.737c.453-1.218.991-1.67 1.388-1.812.65-.255 1.755.537 1.869.594.368.227 1.416.878 1.67 1.048.17.113.454.312.624.425.056.028.113.056.141.085.51.311.963.538 1.076.34.114-.227-.764-.907-1.16-1.36-.34-.396-.37-.51-.37-.68s.143-.31.143-.31.141.282.538.197c.283-.056.34-.255.34-.255s.198.17.51.085c.31-.085.339-.34.339-.34s.17.255.566.17c.369-.085.369-.368.369-.368s.17.284.594.199c.368-.085.34-.425.34-.425s.198.226.567.141c.34-.085.34-.368.34-.368s.17.227.51.142a.425.425 0 0 0 .339-.397s.227.255.623.114c.226-.085.283-.34.283-.34s.198.226.538.17c.17-.057.312-.17.397-.255.113.17.906 1.387.51 3.71-.142.736-.284 1.302-.454 1.699-.085.198-.226.368-.594.566-.595.368-1.926.312-2.55.255h-.14c-1.049-.113-.794-1.444-.454-1.784s.793-.991.878-1.274c.142-.397 0-.482-.113-.482s-.142.085-.227.34-.538.991-1.274 1.5c-.34.227-.538.454-.651.737-.199.312-.142.482-.227.708-.057.255-.425.736-1.19.623a.98.98 0 0 1-.594-.283c-.51-.538-.028-1.133.17-1.331q.084-.085 0-.085c-.708-.198-.963.34-1.133.623-.057.113-.142.198-.198.142-.312-.255.056-.907.198-1.161.17-.255.142-.482-.425-.312-.453.142-.651.198-1.133.028-.424-.141-.906-.594-.566-1.359.057-.17.113-.311.113-.425.029-.255-.198-.255-.34-.141a1.8 1.8 0 0 0-.453.51c-.141.198-.424.566-.764.396-.255-.142-.453-.17-.51-.028-.057.141.113.34.396.594.454.368.34 1.161-.254 1.105-.595-.029-.822-.029-.85.198 0 .113.085.17.198.255s.34.17.227 1.02c-.029.283-.142.792-.567.622-.028 0-.056-.028-.085-.028-.113-.057-.113-.113-.084-.198.056-.368.198-.652.198-.68.028-.056.056-.198-.029-.255-.113-.056-.198.085-.226.142 0 .028-.113.227-.17.538-.028.113-.113 0-.113-.113.028-.057.028-.085.028-.114"/><path fill="#606B81" fill-rule="evenodd" d="M78.963 25.231v8.411s.199.538 1.473.595v.368h-5.437v-.368s1.104 0 1.472-.623v-4.106h-4.248v4.134s.199.538 1.473.595v.368h-5.437v-.368s1.104 0 1.472-.623v-8.41c-.368-.596-1.472-.624-1.472-.624v-.368h5.437v.368c-1.274.057-1.473.595-1.473.595V28.8h4.248v-3.625c-.368-.595-1.472-.623-1.472-.623v-.368h5.437v.368c-1.274.141-1.473.68-1.473.68m-8.835.057h.396v8.354h-.396zm6.74 0h.396v8.354h-.396zm18.209 8.353s.34.538 1.53.595v.368h-5.523v-.368s1.02 0 1.36-.623v-8.411c-.34-.595-1.36-.623-1.36-.623v-.368h6.796s2.209-.085 2.974 1.699c0 0 .311.963.028 1.67-.424 1.502-2.435 2.04-2.435 2.04s.85.425 2.379 2.803c0 0 1.217 1.615 2.01 1.841l.34.34-3.653-.028c-.368-.142-1.982-2.52-1.982-2.52-1.36-2.153-2.407-1.983-2.492-1.983v3.568zm0-8.58a.3.3 0 0 0 0 .17v4.134c.141 0 2.577.142 3.313-1.7.17-.537.142-1.019.142-1.019-.283-2.265-3.427-1.586-3.455-1.586m4.106 8.495h.425c-.312-.34-1.444-2.039-1.444-2.039-.397-.708-1.331-1.444-1.331-1.444l-.397.028s.991.793 1.416 1.586c0 0 .85 1.331 1.331 1.87m-1.02-8.467c1.955 1.84-.028 3.71-.028 3.71s1.218-.623 1.218-1.87c0-1.302-1.19-1.84-1.19-1.84m-5.153.198h.368v8.354h-.368zm-8.015-.142v3.71h2.237c.312-.142.624-1.53.68-1.812h.425v4.19h-.453c-.028-.226-.34-1.698-.68-1.755h-2.237v3.54c.028.17.142.765.708.793 0 0 1.982.34 3.738-.312 0 0 .34-.34.708-1.897l.425-.028-.114 3.03h-9.458v-.368s.878 0 1.161-.623v-8.411c-.312-.595-1.161-.623-1.161-.623v-.368l9.175.028-.028 2.832h-.425c-.368-1.558-.764-1.84-.764-1.84-1.445-.596-3.597-.17-3.937-.086m-2.067.085h.311v8.354h-.311z" clip-rule="evenodd"/><path fill="#606B81" fill-rule="evenodd" d="m107.226 26.223-1.699 4.503h3.596zm.141-.963h.34l3.484 8.297h-.425zm-2.095 6.145-.821 2.152s.254.624 1.444.652v.425h-3.908v-.425s1.218 0 1.529-.765l3.144-8.156c-.284-.594-1.473-.594-1.473-.594v-.425h3.795l3.964 9.147s.34.821 1.558.793v.425h-5.636v-.425s1.246-.085 1.473-.595l-.935-2.209zm14.953-7.165v.397c-1.218.085-1.275.424-1.445.623v7.76c.029.17.114.764.623.792 0 0 2.039.255 3.654-.311 0 0 .424-.652.736-2.21l.396-.028-.085 3.37h-9.288v-.424s1.189-.029 1.416-.623l.028-8.213c-.227-.595-1.444-.68-1.444-.68v-.396h5.409zm-3.484 1.076h.34v8.326h-.34zm19.003 1.869c-1.331-3.03-4.871-2.945-4.871-2.945h-6.344v.396s1.275.057 1.473.68v8.27c-.198.622-1.473.679-1.473.679v.396h5.692c2.549-.056 4.701-1.246 5.579-3.115.935-2.237-.056-4.36-.056-4.36m-2.096.283c-.425-1.897-1.501-2.35-1.501-2.35 1.331.311 2.011 2.01 2.096 3.823.085 1.982-.595 4.106-2.039 4.531 0 0 1.586-.85 1.642-4.078 0-.028.029-.51 0-.906-.085-.538-.198-1.02-.198-1.02m-.34 1.87s.057 1.868-.538 2.916c-.906 1.926-3.2 1.728-3.2 1.728-1.048-.085-1.076-.765-1.076-.765v-8.156s.651-.17 1.982-.142c0 0 1.218-.056 2.011.935 0 0 .765.963.821 2.52zm-6.91-4.079h.397v8.326h-.397zM11.676 27.185c-1.302-2.945-4.7-2.832-4.7-2.832H.857v.368s1.218.057 1.416.652v7.986c-.198.595-1.416.651-1.416.651v.368h5.494c2.464-.056 4.531-1.189 5.38-3.03.879-2.067-.056-4.163-.056-4.163m-2.039.284c-.396-1.841-1.444-2.294-1.444-2.294 1.274.311 1.954 1.954 2.01 3.681.086 1.926-.566 3.965-1.982 4.39 0 0 1.53-.822 1.586-3.965 0-.028.029-.482 0-.878-.056-.453-.17-.934-.17-.934m-.311 1.812s.056 1.812-.538 2.804c-.878 1.84-3.087 1.67-3.087 1.67-1.02-.085-1.048-.736-1.048-.736v-7.901s.623-.17 1.926-.142c0 0 1.16-.028 1.926.907 0 0 .736.934.792 2.435zm-6.684-3.936h.369v8.07h-.369zm13.623-.113v3.596h2.153c.311-.113.594-1.5.651-1.756h.425v4.078h-.425c-.028-.226-.34-1.642-.651-1.699h-2.153v3.427c.029.17.114.736.68.793 0 0 1.926.34 3.625-.312 0 0 .34-.311.708-1.84l.396-.029-.113 2.917h-9.119v-.368s.85 0 1.133-.595v-8.156c-.283-.595-1.133-.595-1.133-.595v-.368l8.864.029-.028 2.747h-.397c-.368-1.53-.736-1.785-.736-1.785-1.444-.594-3.54-.17-3.88-.084m-1.982.084h.283v8.1h-.283zm32.086.992-1.671 4.36h3.483zm.113-.935h.311l3.37 8.043h-.396zm-2.04 5.947-.792 2.096s.227.595 1.416.623v.425H41.27v-.425s1.161 0 1.501-.765l3.059-7.9c-.284-.567-1.445-.595-1.445-.595v-.369h3.682l3.851 8.864s.34.793 1.501.793v.425h-5.466v-.425s1.218-.085 1.416-.566l-.906-2.124h-4.021zm-19.426 2.775s1.756.907 4.418.369c0 0 1.33-.227 2.549-1.558l-.34-.453c-2.52 2.124-4.985.736-4.985.736-3.37-1.897-2.293-8.949 2.35-8.212 0 0 1.304.113 1.473.793l.454 1.387h.396v-2.322s-1.926-.935-4.984-.425c-2.464.482-3.54 2.775-3.54 2.775s-.425.708-.538 2.096c-.028.028-.368 3.313 2.747 4.814m-2.01-4.22s-.057 2.606 2.321 3.88c-1.755-.65-2.378-2.435-2.378-2.435-.51-1.643-.142-3.03-.142-3.03.623-2.464 2.492-3.144 2.492-3.144-1.926 1.275-2.18 3.2-2.18 3.2s-.114.454-.114 1.53" clip-rule="evenodd"/><path fill="#606B81" fill-rule="evenodd" d="M34.672 34.095s1.756.907 4.418.369c0 0 1.33-.227 2.52-1.558l-.34-.453c-2.52 2.124-4.984.736-4.984.736-3.37-1.897-2.294-8.949 2.35-8.212 0 0 1.303.113 1.473.793l.453 1.387h.397v-2.322s-1.898-.935-4.984-.425c-2.464.482-3.54 2.775-3.54 2.775s-.425.708-.538 2.096c-.029.028-.368 3.313 2.775 4.814m-2.04-4.22s-.056 2.606 2.323 3.88c-1.756-.65-2.379-2.435-2.379-2.435-.51-1.643-.141-3.03-.141-3.03.623-2.464 2.492-3.144 2.492-3.144-1.926 1.275-2.18 3.2-2.18 3.2s-.114.454-.114 1.53m23.335-3.483 6.23 8.07h1.53v-9.005c.311-.594 1.444-.623 1.444-.623v-.425h-3.738v.425c1.104 0 1.444.595 1.444.595v5.834l-5.324-6.854h-3.88v.425s.963-.028 1.416.595l.028 8.014c-.311.595-1.444.623-1.444.623v.425h3.738v-.453c-1.076 0-1.444-.595-1.444-.595zm6.428 7.051-6.173-8.014h-.425l6.174 8.014z" clip-rule="evenodd"/></svg>