<svg xmlns="http://www.w3.org/2000/svg" width="98" height="28" fill="none" viewBox="0 0 98 28"><path fill="#606B81" d="M10.518 4.549v7.747H3.385V4.55H0v18.494h3.385v-7.496h7.132v7.496h3.387V4.549zM24.74 17.065c0 .742-.295 1.452-.82 1.977a2.805 2.805 0 0 1-3.962 0 2.8 2.8 0 0 1-.82-1.977V9.143h-3.212v7.922c0 1.59.633 3.114 1.76 4.238a6.013 6.013 0 0 0 8.494 0 6 6 0 0 0 1.76-4.238V9.143h-3.2zM48.535 9.96c0-1.625 1.077-2.14 2.256-2.14.95 0 2.206.723 3.028 1.598l2.102-2.473C54.872 5.528 52.743 4.549 51 4.549c-3.485 0-6.004 2.036-6.004 5.41 0 6.262 7.67 4.275 7.67 7.78 0 1.08-1.052 2.035-2.255 2.035-1.9 0-2.515-.926-3.388-1.906l-2.334 2.422c1.493 1.828 3.335 2.757 5.54 2.757 3.31 0 5.973-2.06 5.973-5.282 0-6.952-7.672-4.792-7.672-7.805m47.46 10.128c-1.897 0-2.437-.819-2.437-2.073v-5.553h2.95V9.648h-2.95V5.935l-3.256 1.459v11.311c0 2.894 2.001 4.352 4.744 4.352a6.7 6.7 0 0 0 1.285-.103l.794-2.918c-.358.025-.77.05-1.13.05M36.965 9.236c-1.59 0-2.701.46-3.775 1.51V4.66h-3.216v11.284c0 4.223 3.06 7.117 6.5 7.117 3.815 0 7.171-2.945 7.171-6.91 0-3.917-3.088-6.912-6.68-6.912m-.02 10.593a3.66 3.66 0 0 1-2.581-1.067 3.64 3.64 0 0 1-.791-3.968 3.64 3.64 0 0 1 1.975-1.971 3.66 3.66 0 0 1 3.978.79 3.64 3.64 0 0 1 0 5.149 3.65 3.65 0 0 1-2.581 1.067m34.946-3.85c0-3.973-3.349-6.91-7.171-6.91-3.439 0-6.5 2.892-6.5 7.117v11.29h3.216v-6.096c1.072 1.048 2.185 1.511 3.773 1.511 3.592 0 6.682-2.995 6.682-6.912m-3.045-.04c0 .966-.385 1.892-1.07 2.575a3.653 3.653 0 0 1-5.16 0 3.637 3.637 0 0 1 0-5.15 3.654 3.654 0 0 1 5.16 0 3.64 3.64 0 0 1 1.07 2.575"/><path fill="#606B81" d="M82.282 8.915V5.69a2.49 2.49 0 0 0 1.435-2.237v-.074A2.486 2.486 0 0 0 81.228.896h-.074c-.66 0-1.293.261-1.76.727a2.48 2.48 0 0 0-.728 1.756v.074A2.48 2.48 0 0 0 80.1 5.69v3.225a7.05 7.05 0 0 0-3.35 1.472l-8.863-6.888a2.8 2.8 0 0 0 .1-.696A2.79 2.79 0 0 0 66.261.215a2.81 2.81 0 0 0-3.057.601 2.795 2.795 0 0 0 1.976 4.778 2.8 2.8 0 0 0 1.38-.374l8.727 6.775a7.04 7.04 0 0 0 .109 7.944l-2.655 2.65a2.3 2.3 0 0 0-.663-.108 2.31 2.31 0 0 0-2.126 1.419 2.29 2.29 0 0 0 .5 2.502 2.304 2.304 0 0 0 3.93-1.622 2.3 2.3 0 0 0-.108-.662l2.626-2.62a7.09 7.09 0 0 0 6.11 1.236 7.09 7.09 0 0 0 4.722-4.062 7.05 7.05 0 0 0-2.477-8.577 7.1 7.1 0 0 0-2.973-1.18m-1.089 10.604a3.64 3.64 0 0 1-2.633-1.025 3.62 3.62 0 0 1 0-5.196 3.64 3.64 0 0 1 2.633-1.026 3.64 3.64 0 0 1 2.486 1.104 3.62 3.62 0 0 1 .002 5.034 3.64 3.64 0 0 1-2.484 1.107"/></svg>