<svg xmlns="http://www.w3.org/2000/svg" width="106" height="34" fill="none" viewBox="0 0 106 34"><path fill="#606B81" fill-rule="evenodd" d="M0 0h105.99v33.387H0z" clip-rule="evenodd"/><path fill="#fff" fill-rule="evenodd" d="m97.14 26.745-3.927-6.677c2.208-1.378 3.391-3.634 3.391-6.472v-.059c0-2.143-.571-3.703-1.755-5.064-1.436-1.648-3.727-2.408-6.76-2.408h-9.056v17.006L72.797 6.118l-.135-.188h-6.489l-.1.188-3.84 10.629c0-.077.048-.195.048-.271v-.06c0-3.173-1.007-5.728-2.826-7.536-1.926-1.914-4.752-2.809-8.315-2.809h-7.119v17.006L37.756 6.124l-.165-.188h-6.489l-.1.188-6.324 17.335-1.95-3.409c2.209-1.378 3.44-3.61 3.44-6.442v-.059c0-2.143-.624-3.704-1.808-5.064-1.437-1.649-3.774-2.408-6.813-2.408H8.455v21.386h6.813v-7.625l3.84 7.32.082.305h11.335l.094-.33.825-2.531h5.664l.848 2.532.094.33h12.872c3.551 0 6.466-1.143 8.42-3.127.048-.047.095-.148.142-.2l-.96 2.714-.2.618h7.254l.095-.33.824-2.531h5.665l.847 2.532.095.33h12.719v-7.626l3.821 7.32.065.305h7.778l-.365-.706zM85.846 11.924h2.09c1.107 0 1.861.518 1.861 1.643v.53c0 1.054-.706 1.778-1.884 1.778h-2.067zm-15.35 7.084h-2.262l1.13-5.435zm-15.022-2.444v.059c0 2.55-1.49 4.022-4.198 4.022h-.436v-7.767h.436c2.708 0 4.198 1.13 4.198 3.686m-19.755 2.444h-2.862l1.448-5.435zm-20.427-7.084h2.126c1.142 0 1.96.548 1.96 1.643v.406c0 1.072-.812 1.902-1.984 1.902h-2.102z" clip-rule="evenodd"/><path fill="#606B81" fill-rule="evenodd" d="m67.957 19.756 25.786-2.727-.719-6.771-25.785 2.726z" clip-rule="evenodd"/><path fill="#fff" fill-rule="evenodd" d="M68.8 16.222v-.012c-.124-1.165.712-2.208 1.966-2.343 1.254-.136 2.279.7 2.402 1.866v.012c.124 1.166-.712 2.208-1.966 2.344s-2.28-.7-2.403-1.867m3.214-.341v-.012c-.064-.589-.536-1.054-1.154-.983-.618.064-.977.606-.918 1.195v.012c.064.583.541 1.054 1.16.983.612-.065.971-.606.912-1.195m1.667-2.237 1.049-.112 1.896 1.966-.224-2.143 1.113-.118.43 4.057-.983.106-1.973-2.043.236 2.226-1.113.118zm4.7-.501 1.124-.118.324 3.074 1.967-.207.106.984-3.091.33zm4.822-.513-1.124.119.43 4.063 1.124-.118zm.884-.088 1.048-.112 1.896 1.967-.224-2.143 1.113-.118.43 4.057-.978.106-1.978-2.043.235 2.225-1.113.118zm4.698-.5 3.263-.348.1.954-2.15.23.065.618 1.95-.206.094.89-1.95.205.071.642 2.179-.23.1.954-3.292.354z" clip-rule="evenodd"/></svg>