<svg xmlns="http://www.w3.org/2000/svg" width="138" height="23" fill="none" viewBox="0 0 138 23"><path fill="#606B81" d="m84.118 18.578.995 1.211c-2.731 3.31-9.476 3.963-12.632 1.253-3.45 2.288-5.825 2.3-8.203.051-2.98 2.224-6.013 2.231-8.095-.052-1.123 1.07-2.472 1.62-4.042 1.673-1.555.053-2.927-.301-3.942-1.541-3.009 2.051-5.85 2.108-8.295.198-3.227 2.051-5.137 1.86-8.166-.85-2.634 2.073-5.647 2.569-8.883 1.963-1.36-.255-2.463-.95-3.48-1.932-.578-.557-1.546-.718-2.35-1.025-.085-.032-.283.113-.372.224-1.438 1.78-3.44 2.461-5.58 2.839-2.28.402-4.58.487-6.83-.111-.915-.244-1.867-.661-2.591-1.255-1.972-1.62-1.393-4.515 1.02-5.319 2.218-.74 4.48-.4 6.725-.105.428.056.855.147 1.374.049-.821-.55-1.67-1.061-2.457-1.657-1.518-1.152-3.231-2.152-4.445-3.571-2.444-2.857-1.302-6.836 2.218-8.158 3.853-1.448 7.39-.695 10.68 1.864l-1.782 2.635c-1.395-.59-2.702-1.15-4.016-1.691a1.6 1.6 0 0 0-.65-.1c-.771.034-1.54.143-1.91.949-.386.832.15 1.442.709 1.866 1.4 1.06 2.887 2.005 4.314 3.03.942.675 1.889 1.354 2.753 2.124 1.146 1.021 1.629 2.348 1.5 3.896-.079.964-.054.966 1.048 1.14.22-1.54 1.083-2.624 2.38-3.186-.517-.717-1.238-1.359-1.49-2.148-.435-1.372.09-2.595 1.235-3.502 2.21-1.748 7.273-1.533 9.423.434l-.951 1.376c-1.112-.265-2.087-.567-3.088-.712-.741-.11-1.368.223-1.573 1.032-.221.868.109 1.561.932 1.94.338.157.71.257 1.077.334 1.444.3 1.446.293 1.27 1.867-.57.098-1.158.164-1.726.307-1.265.321-1.93 1.203-1.84 2.375.084 1.123.832 1.817 2.14 1.981 1.323.166 2.553-.094 3.718-.747.575-.323.662-.674.592-1.36-.149-1.482-.323-3.045-.01-4.472.822-3.738 4.223-5.88 8.265-5.256 1.389.214 2.767.784 4.033 1.42 1.095.549 1.576 1.64 1.557 2.921-.03 2.012-.015 4.025-.006 6.04.006 1.13.446 1.626 1.38 1.603 1.034-.024 1.557-.575 1.559-1.664q.006-3.773.005-7.55v-1.005h-2.7v-1.61h2.663V4.64h5.52v3.852h2.56V4.625h5.477v3.873h2.64V5.53c.008-2.363.81-3.755 2.482-4.316 2.056-.689 4.798-.002 5.97 1.497 1.136 1.45 1.272 4.044.277 5.614-.581.92-1.413 1.52-2.487 1.712-.515.092-.75.268-.744.844.03 2.672-.004 5.346.023 8.018.011 1.136.485 1.567 1.387 1.369.608-.132.972-.348.84-1.15-.329-2.01.642-3.374 2.197-4.103-.516-.847-1.237-1.613-1.467-2.504-.349-1.363.321-2.506 1.482-3.306 2.317-1.599 6.96-1.35 9.232.537l-.951 1.406c-1.082-.26-2.06-.566-3.061-.713-.79-.117-1.444.242-1.618 1.098-.177.88.155 1.588 1.012 1.89.727.256 1.504.371 2.312.562v1.585c-.742.166-1.459.26-2.129.495-1.129.396-1.576 1.183-1.447 2.338.109.993.756 1.648 1.853 1.836 1.608.276 3.044-.183 4.367-1.074.255-.171.496-.366.804-.592zm-44.937-3.133h-.007q-.002-1.933 0-3.865c0-.636-.253-1.233-.89-1.235-.503 0-1.065.333-1.49.661-.255.196-.4.666-.415 1.02-.083 2.026-.176 4.059-.123 6.084.015.602.36 1.315.785 1.749.31.315 1.014.381 1.52.332.617-.06.645-.62.628-1.166-.034-1.193-.011-2.387-.011-3.582zm22-5.209c0 1.63-.008 3.221.002 4.813.01 1.41-.008 2.82.071 4.229.051.904.655 1.25 1.508.96.642-.218 1.036-.598 1.027-1.373-.032-2.665-.01-5.332-.015-7.997 0-.207-.057-.413-.089-.63H61.18zm-8.055-.006c0 2.969.006 5.85-.004 8.735-.002.745.17 1.33 1.051 1.358.85.027 1.493-.605 1.493-1.434v-8.657H53.13zm-41.528 7.91c-.642-.115-1.091-.25-1.546-.268-1.397-.057-2.797-.117-4.192-.06-.328.013-.638.477-.955.733.293.28.54.674.89.812.448.177.979.211 1.471.198 1.491-.038 3.003-.053 4.332-1.417zm57.707-9.63c1.042-.07 1.657-.565 1.93-1.461.324-1.076.065-2.475-.539-2.901-.68-.48-1.342-.206-1.377.636-.053 1.219-.014 2.442-.014 3.725m64.912 11.15c.868.904.864 1.008-.027 1.791-1.627 1.432-4.99 1.712-6.714.404-.676-.511-1.074-1.385-1.625-2.129-3.986 3.542-8.502 3.982-13.534 1.427-1.249 1.296-3.016 1.674-4.944 1.536-2.24-.159-3.577-1.564-3.584-3.808-.013-3.46-.002-6.919-.006-10.378q0-.567-.026-1.13c-.04-.863-.502-1.331-1.355-1.386-.868-.057-1.419.413-1.525 1.306-.057.466-.07.94-.072 1.412-.006 4.087-.004 8.175-.004 12.263v1.25h-5.508v-1.018l.001-13.49c0-.732-.1-1.398-.932-1.65-1.078-.326-1.947.291-1.966 1.473-.034 2.389-.016 4.78-.017 7.17v7.503h-5.434c-.026-.342-.079-.7-.079-1.06q-.008-7.407-.006-14.812c0-1.911-.336-2.144-2.113-1.404l-.774-1.025c1.995-2.251 5.71-2.217 7.964.048 2.486-2.652 6.458-2.03 8.226.234 1.297-1.521 2.975-2.099 4.932-1.942 2.363.188 3.988 1.747 4.097 4.244.136 3.044.081 6.098.104 9.146.009 1.162-.044 2.33.03 3.49.025.375.281.92.577 1.048.365.157.895.004 1.325-.117.155-.043.329-.38.327-.58-.036-2.864.013-2.973 2.393-4.647-1.278-.763-2.02-1.804-1.729-3.354.304-1.615 1.416-2.502 2.884-2.916 2.751-.775 5.39-.515 7.921 1.123l-1.021 1.46c-1.118-.258-2.127-.55-3.158-.705-.723-.107-1.302.266-1.494 1.012-.202.775-.014 1.508.751 1.84.762.332 1.602.487 2.51.749v1.536c-.682.157-1.393.257-2.063.487-1.129.389-1.602 1.195-1.478 2.321q.178 1.587 1.918 1.87c2.606.425 5.59-.949 6.886-3.18.091-.154.151-.345.166-.524.029-.311.012-.629.012-.944v-5.395h-2.326V8.617h2.28V4.65h5.59v3.87h6.219v1.658h-6.189v3.557c0 1.699-.03 3.397.021 5.094.013.453.185 1.2.449 1.285.493.155 1.11-.06 1.669-.162.162-.03.3-.195.443-.295z"/></svg>